<svg width="66" height="65" viewBox="0 0 66 65" fill="none" xmlns="http://www.w3.org/2000/svg">
<path d="M60.1348 5.54439H52.4185V2.81136C52.3073 2.03116 51.9184 1.31726 51.3231 0.800804C50.7278 0.284344 49.9662 0 49.1781 0C48.39 0 47.6284 0.284344 47.0331 0.800804C46.4379 1.31726 46.0489 2.03116 45.9378 2.81136V5.57712H19.524V2.81136C19.4128 2.03116 19.0238 1.31726 18.4286 0.800804C17.8333 0.284344 17.0717 0 16.2836 0C15.4955 0 14.7339 0.284344 14.1386 0.800804C13.5434 1.31726 13.1544 2.03116 13.0432 2.81136V5.57712H5.32695C2.38935 5.57712 0 8.40834 0 11.8942V58.6911C0 62.1688 2.38935 65 5.32695 65H60.1511C63.0724 65 65.4617 62.1688 65.4617 58.6911V11.8614C65.4617 8.37561 63.0724 5.54439 60.1348 5.54439ZM47.5743 2.81136C47.6494 2.44141 47.8501 2.1088 48.1424 1.8699C48.4347 1.63099 48.8006 1.50049 49.1781 1.50049C49.5556 1.50049 49.9215 1.63099 50.2138 1.8699C50.5061 2.1088 50.7068 2.44141 50.7819 2.81136V9.9876C50.7068 10.3576 50.5061 10.6902 50.2138 10.9291C49.9215 11.168 49.5556 11.2985 49.1781 11.2985C48.8006 11.2985 48.4347 11.168 48.1424 10.9291C47.8501 10.6902 47.6494 10.3576 47.5743 9.9876V2.81136ZM14.6798 2.81136C14.6315 2.57368 14.6367 2.32823 14.6949 2.09279C14.7532 1.85735 14.863 1.63779 15.0165 1.45C15.17 1.26222 15.3633 1.11089 15.5824 1.00697C15.8016 0.903057 16.0411 0.84915 16.2836 0.84915C16.5261 0.84915 16.7656 0.903057 16.9848 1.00697C17.2039 1.11089 17.3972 1.26222 17.5507 1.45C17.7042 1.63779 17.8141 1.85735 17.8723 2.09279C17.9305 2.32823 17.9357 2.57368 17.8874 2.81136V9.9876C17.8123 10.3576 17.6116 10.6902 17.3193 10.9291C17.027 11.168 16.6611 11.2985 16.2836 11.2985C15.9061 11.2985 15.5402 11.168 15.2479 10.9291C14.9556 10.6902 14.7549 10.3576 14.6798 9.9876V2.81136ZM5.32695 7.18093H13.0432V9.95487C13.1544 10.7351 13.5434 11.449 14.1386 11.9654C14.7339 12.4819 15.4955 12.7662 16.2836 12.7662C17.0717 12.7662 17.8333 12.4819 18.4286 11.9654C19.0238 11.449 19.4128 10.7351 19.524 9.95487V7.18093H45.9378V9.95487C46.0489 10.7351 46.4379 11.449 47.0331 11.9654C47.6284 12.4819 48.39 12.7662 49.1781 12.7662C49.9662 12.7662 50.7278 12.4819 51.3231 11.9654C51.9184 11.449 52.3073 10.7351 52.4185 9.95487V7.18093H60.1348C62.1886 7.18093 63.8252 9.28389 63.8252 11.8614V20.5024H1.63654V11.8614C1.63654 9.28389 3.27309 7.18093 5.32695 7.18093ZM60.1348 63.3635H5.31058C3.27309 63.3635 1.63654 61.2687 1.63654 58.6911V22.1389H63.8252V58.6911C63.8252 61.2687 62.1886 63.3635 60.1348 63.3635Z" fill="#EC6100"/>
<path d="M11.4559 40.4518H19.7368C20.1492 40.4432 20.5417 40.2728 20.8295 39.9773C21.1173 39.6818 21.2774 39.285 21.2752 38.8725V30.5425C21.2689 30.1357 21.1051 29.7472 20.8181 29.4588C20.5312 29.1703 20.1436 29.0044 19.7368 28.996H11.4559C11.2462 28.9872 11.0369 29.0206 10.8403 29.0941C10.6436 29.1675 10.4638 29.2797 10.3112 29.4238C10.1586 29.568 10.0365 29.7413 9.95205 29.9334C9.86758 30.1255 9.82246 30.3327 9.81936 30.5425V38.8725C9.81807 39.0852 9.85996 39.2958 9.94248 39.4918C10.025 39.6878 10.1464 39.865 10.2995 40.0126C10.4525 40.1603 10.6339 40.2753 10.8326 40.3508C11.0314 40.4263 11.2435 40.4607 11.4559 40.4518ZM11.4559 30.6325H19.6386V38.8153H11.4559V30.6325Z" fill="#EC6100"/>
<path d="M11.4559 56.5226H19.7368C20.1478 56.514 20.539 56.3447 20.8266 56.051C21.1142 55.7573 21.2752 55.3626 21.2751 54.9515V46.6297C21.273 46.2144 21.1065 45.8169 20.8121 45.5241C20.5177 45.2312 20.1193 45.0668 19.7041 45.0668H11.4559C11.2448 45.058 11.0341 45.0918 10.8364 45.1663C10.6388 45.2408 10.4581 45.3544 10.3053 45.5003C10.1526 45.6462 10.0308 45.8214 9.94727 46.0155C9.86377 46.2095 9.82025 46.4184 9.81934 46.6297V54.9515C9.81915 55.1635 9.86185 55.3732 9.94487 55.5683C10.0279 55.7633 10.1495 55.9395 10.3024 56.0862C10.4553 56.233 10.6363 56.3473 10.8345 56.4223C11.0328 56.4973 11.2441 56.5314 11.4559 56.5226ZM11.5295 46.7033H19.6386V54.8861H11.4559L11.5295 46.7033Z" fill="#EC6100"/>
<path d="M28.5658 40.4519H36.8959C37.1022 40.4508 37.3063 40.4091 37.4965 40.3292C37.6867 40.2492 37.8593 40.1326 38.0044 39.986C38.1495 39.8393 38.2643 39.6655 38.3423 39.4745C38.4203 39.2835 38.4598 39.0789 38.4588 38.8726V30.5426C38.4523 30.1316 38.2851 29.7395 37.9929 29.4504C37.7007 29.1613 37.3069 28.9982 36.8959 28.9961H28.5658C28.1548 28.9982 27.761 29.1613 27.4688 29.4504C27.1766 29.7395 27.0094 30.1316 27.003 30.5426V38.8726C27.0019 39.0789 27.0414 39.2835 27.1194 39.4745C27.1974 39.6655 27.3122 39.8393 27.4573 39.986C27.6024 40.1326 27.775 40.2492 27.9652 40.3292C28.1554 40.4091 28.3595 40.4508 28.5658 40.4519ZM28.6395 30.6326H36.8222V38.8154H28.6395V30.6326Z" fill="#EC6100"/>
<path d="M28.5658 56.5227H36.8958C37.3111 56.5205 37.7086 56.3541 38.0015 56.0597C38.2943 55.7653 38.4587 55.3669 38.4587 54.9516V46.6298C38.4566 46.216 38.2912 45.8197 37.9986 45.527C37.706 45.2344 37.3097 45.069 36.8958 45.0669H28.5658C28.152 45.069 27.7557 45.2344 27.4631 45.527C27.1704 45.8197 27.0051 46.216 27.0029 46.6298V54.9516C27.0029 55.3669 27.1673 55.7653 27.4602 56.0597C27.7531 56.3541 28.1506 56.5205 28.5658 56.5227ZM28.6395 46.7034H36.8222V54.8862H28.6395V46.7034Z" fill="#EC6100"/>
<path d="M45.7249 40.4521H54.0467C54.2558 40.4554 54.4634 40.4169 54.6574 40.3389C54.8514 40.2609 55.0279 40.1449 55.1765 39.9978C55.3251 39.8507 55.4428 39.6755 55.5228 39.4823C55.6028 39.2891 55.6435 39.0819 55.6423 38.8728V30.5428C55.6391 30.3365 55.5953 30.1328 55.5134 29.9434C55.4315 29.754 55.3131 29.5826 55.1649 29.439C55.0167 29.2954 54.8417 29.1824 54.6498 29.1064C54.458 29.0305 54.253 28.993 54.0467 28.9963H45.7249C45.3181 29.0047 44.9305 29.1706 44.6436 29.4591C44.3567 29.7475 44.1928 30.136 44.1865 30.5428V38.8728C44.1843 39.2853 44.3444 39.6821 44.6322 39.9776C44.92 40.2731 45.3125 40.4435 45.7249 40.4521ZM45.8231 30.6328H54.0058V38.8155H45.8231V30.6328Z" fill="#EC6100"/>
<path d="M45.7249 56.5227H54.0467C54.2551 56.526 54.462 56.4877 54.6555 56.4102C54.8489 56.3327 55.025 56.2175 55.1735 56.0713C55.322 55.9251 55.4399 55.7508 55.5204 55.5586C55.6009 55.3663 55.6424 55.16 55.6423 54.9516V46.6298C55.6402 46.216 55.4748 45.8197 55.1822 45.527C54.8895 45.2344 54.4933 45.069 54.0794 45.0669H45.7249C45.3153 45.0754 44.9253 45.2436 44.6379 45.5355C44.3505 45.8275 44.1886 46.2201 44.1865 46.6298V54.9516C44.1864 55.3627 44.3475 55.7574 44.6351 56.0511C44.9226 56.3448 45.3139 56.5141 45.7249 56.5227ZM45.7903 46.7034H54.0058V54.8862H45.8231L45.7903 46.7034Z" fill="#EC6100"/>
<path d="M61.1329 24.0049H4.32853C4.11151 24.0049 3.90338 24.0911 3.74992 24.2445C3.59646 24.398 3.51025 24.6061 3.51025 24.8232V57.4476C3.51025 58.5197 3.93613 59.5479 4.69421 60.306C5.45228 61.064 6.48044 61.4899 7.55251 61.4899H57.9089C58.981 61.4899 60.0092 61.064 60.7673 60.306C61.5253 59.5479 61.9512 58.5197 61.9512 57.4476V24.8232C61.9512 24.6061 61.865 24.398 61.7115 24.2445C61.5581 24.0911 61.35 24.0049 61.1329 24.0049ZM60.3147 57.4476C60.3147 58.0857 60.0612 58.6976 59.61 59.1487C59.1589 59.5999 58.547 59.8534 57.9089 59.8534H7.55251C6.91448 59.8534 6.30258 59.5999 5.85142 59.1487C5.40026 58.6976 5.1468 58.0857 5.1468 57.4476V25.6414H60.3147V57.4476Z" fill="#EC6100"/>
<rect x="11" y="30" width="9" height="9" fill="#EC6100"/>
<rect x="11" y="46" width="9" height="9" fill="#EC6100"/>
<path d="M28 30H37V39H28V30Z" fill="#EC6100"/>
<path d="M28 46H37V55H28V46Z" fill="#EC6100"/>
<path d="M45 30H54V39H45V30Z" fill="#EC6100"/>
<path d="M45 46H54V55H45V46Z" fill="#EC6100"/>
</svg>
